<?xml version="1.0" standalone="no"?>
<!DOCTYPE svg PUBLIC "-//W3C//DTD SVG 20010904//EN"
 "http://www.w3.org/TR/2001/REC-SVG-20010904/DTD/svg10.dtd">
<svg version="1.0" xmlns="http://www.w3.org/2000/svg"
 width="101.000000pt" height="101.000000pt" viewBox="0 0 101.000000 101.000000"
 preserveAspectRatio="xMidYMid meet">
<metadata>
Created by potrace 1.14, written by Peter Selinger 2001-2017
</metadata>
<g transform="translate(0.000000,101.000000) scale(0.100000,-0.100000)"
fill="#000000" stroke="none">
<path d="M373 1002 c-13 -2 -23 -6 -23 -8 0 -5 133 -197 150 -217 6 -7 170
211 170 224 0 5 -266 5 -297 1z"/>
<path d="M83 499 c0 -275 3 -497 6 -493 19 19 197 183 202 186 5 2 161 -136
210 -186 6 -6 43 26 156 135 l62 60 87 -83 c48 -46 96 -91 106 -100 17 -17 18
-17 19 15 0 27 0 917 -1 956 0 8 -30 -28 -66 -79 -60 -85 -65 -96 -53 -114 52
-84 51 -139 -5 -195 -34 -34 -40 -36 -114 -39 l-78 -4 -44 -64 c-24 -36 -49
-69 -55 -74 -9 -7 -27 12 -64 64 l-53 74 -65 1 c-48 0 -73 6 -99 22 -34 21
-71 80 -68 109 1 8 2 25 3 37 0 12 13 35 27 52 l25 31 -47 67 c-27 38 -58 80
-70 95 l-21 26 0 -499z"/>
<path d="M262 754 c-25 -17 -37 -66 -22 -93 11 -21 53 -38 80 -32 47 9 68 82
32 114 -25 22 -67 28 -90 11z"/>
<path d="M682 760 c-27 -11 -45 -55 -37 -88 6 -26 59 -53 84 -44 56 19 70 86
25 121 -29 23 -38 24 -72 11z"/>
</g>
</svg>
