<?xml version="1.0" encoding="UTF-8"?><svg id="Layer_1" xmlns="http://www.w3.org/2000/svg" viewBox="0 0 1231.71 192.27"><defs><style>.cls-1{fill:#ff6831;}.cls-1,.cls-2{stroke-width:0px;}.cls-2{fill:#002c6b;}</style></defs><path class="cls-2" d="m263.58,135.44h37.53v14.69h-55.74V39.14h18.21v96.3Z"/><path class="cls-2" d="m389.9,112.92h-67.24c.53,7.03,3.14,12.67,7.83,16.93,4.68,4.26,10.43,6.39,17.25,6.39,9.79,0,16.71-4.1,20.76-12.3h19.64c-2.66,8.09-7.48,14.72-14.45,19.88-6.97,5.17-15.63,7.75-25.95,7.75-8.41,0-15.95-1.89-22.6-5.67-6.66-3.78-11.87-9.1-15.65-15.97-3.78-6.87-5.67-14.82-5.67-23.88s1.84-17.01,5.51-23.88c3.67-6.87,8.84-12.16,15.49-15.89,6.65-3.73,14.29-5.59,22.92-5.59s15.7,1.81,22.2,5.43c6.49,3.62,11.55,8.7,15.17,15.25,3.62,6.55,5.43,14.08,5.43,22.6,0,3.3-.21,6.28-.64,8.94Zm-18.37-14.69c-.11-6.71-2.5-12.08-7.19-16.13-4.69-4.04-10.49-6.07-17.41-6.07-6.28,0-11.66,2-16.13,5.99-4.47,3.99-7.13,9.4-7.99,16.21h48.71Z"/><path class="cls-2" d="m444.91,76.98v-14.84h-21.4v-23h-18.38v86.55c0,8.63,2.19,14.85,6.56,18.69,4.35,3.84,10.63,5.75,18.84,5.75h14.38v-15.17h-11.18c-3.73,0-6.37-.73-7.91-2.16-1.54-1.44-2.31-3.81-2.31-7.11v-48.71h21.4Z"/><path class="cls-1" d="m467.74,39.14h19.8l-16.77,38.01h-12.78l9.74-38.01Z"/><path class="cls-2" d="m505.79,147.82c-5.49-2.5-9.82-5.91-13.02-10.22-3.19-4.31-4.9-9.13-5.11-14.45h18.84c.32,3.73,2.1,6.84,5.35,9.34,3.25,2.5,7.32,3.75,12.22,3.75s9.08-.98,11.9-2.95c2.82-1.97,4.23-4.5,4.23-7.59,0-3.3-1.57-5.75-4.71-7.35-3.14-1.6-8.12-3.35-14.93-5.27-6.6-1.81-11.98-3.57-16.13-5.27-4.15-1.7-7.75-4.31-10.78-7.83-3.04-3.51-4.55-8.14-4.55-13.89,0-4.68,1.38-8.97,4.15-12.86,2.77-3.88,6.73-6.95,11.9-9.18,5.16-2.24,11.1-3.35,17.81-3.35,10.01,0,18.07,2.53,24.2,7.59,6.12,5.06,9.39,11.95,9.82,20.68h-18.21c-.32-3.94-1.92-7.08-4.79-9.42-2.87-2.34-6.76-3.51-11.66-3.51s-8.46.91-11.02,2.71c-2.56,1.81-3.83,4.21-3.83,7.19,0,2.34.85,4.31,2.56,5.91,1.7,1.6,3.78,2.85,6.23,3.75,2.45.91,6.07,2.05,10.86,3.43,6.39,1.7,11.63,3.43,15.73,5.19,4.1,1.76,7.64,4.34,10.62,7.75,2.98,3.41,4.52,7.93,4.63,13.57,0,5.01-1.38,9.48-4.15,13.42-2.77,3.94-6.68,7.03-11.74,9.26-5.06,2.24-10.99,3.35-17.81,3.35s-13.12-1.25-18.61-3.75Z"/><path class="cls-2" d="m706.91,39.14l-41.68,111h-21.08l-41.84-111h19.48l32.9,92.31,33.06-92.31h19.16Z"/><path class="cls-2" d="m708.74,82.26c3.67-6.81,8.68-12.11,15.01-15.89,6.33-3.78,13.34-5.67,21-5.67,6.92,0,12.96,1.36,18.13,4.07,5.16,2.71,9.29,6.1,12.38,10.14v-12.78h18.37v88h-18.37v-13.1c-3.09,4.15-7.29,7.61-12.62,10.38-5.33,2.77-11.39,4.15-18.21,4.15-7.56,0-14.48-1.94-20.76-5.83-6.28-3.89-11.26-9.32-14.93-16.29-3.67-6.97-5.51-14.88-5.51-23.72s1.84-16.66,5.51-23.48Zm62.76,7.99c-2.5-4.47-5.78-7.88-9.82-10.22-4.05-2.34-8.41-3.51-13.1-3.51s-9.05,1.14-13.1,3.43c-4.05,2.29-7.32,5.64-9.82,10.06-2.5,4.42-3.75,9.66-3.75,15.73s1.25,11.39,3.75,15.97c2.5,4.58,5.8,8.07,9.9,10.46,4.1,2.4,8.44,3.59,13.02,3.59s9.05-1.17,13.1-3.51c4.04-2.34,7.32-5.77,9.82-10.3,2.5-4.52,3.75-9.82,3.75-15.89s-1.25-11.34-3.75-15.81Z"/><path class="cls-2" d="m832.59,39.14v111h-18.21V39.14h18.21Z"/><path class="cls-2" d="m854.31,47.13c-2.24-2.24-3.35-5-3.35-8.3s1.12-6.07,3.35-8.3c2.24-2.24,5-3.35,8.3-3.35s5.91,1.12,8.14,3.35c2.24,2.24,3.35,5.01,3.35,8.3s-1.12,6.07-3.35,8.3c-2.24,2.24-4.95,3.35-8.14,3.35s-6.07-1.12-8.3-3.35Zm17.25,15.01v88h-18.21V62.14h18.21Z"/><path class="cls-2" d="m891.76,82.26c3.67-6.81,8.68-12.11,15.01-15.89,6.33-3.78,13.39-5.67,21.16-5.67,5.75,0,11.42,1.25,17.01,3.75,5.59,2.5,10.03,5.83,13.34,9.98v-35.3h18.37v111h-18.37v-13.26c-2.98,4.26-7.11,7.77-12.38,10.54-5.27,2.77-11.32,4.15-18.13,4.15-7.67,0-14.67-1.94-21-5.83-6.33-3.89-11.34-9.32-15.01-16.29-3.67-6.97-5.51-14.88-5.51-23.72s1.84-16.66,5.51-23.48Zm62.76,7.99c-2.5-4.47-5.78-7.88-9.82-10.22-4.05-2.34-8.41-3.51-13.1-3.51s-9.05,1.14-13.1,3.43c-4.05,2.29-7.32,5.64-9.82,10.06-2.51,4.42-3.75,9.66-3.75,15.73s1.25,11.39,3.75,15.97c2.5,4.58,5.8,8.07,9.9,10.46,4.1,2.4,8.43,3.59,13.01,3.59s9.05-1.17,13.1-3.51c4.04-2.34,7.32-5.77,9.82-10.3,2.5-4.52,3.75-9.82,3.75-15.89s-1.26-11.34-3.75-15.81Z"/><path class="cls-2" d="m996.85,82.26c3.67-6.81,8.68-12.11,15.01-15.89,6.33-3.78,13.34-5.67,21-5.67,6.92,0,12.96,1.36,18.13,4.07,5.16,2.71,9.29,6.1,12.38,10.14v-12.78h18.37v88h-18.37v-13.1c-3.09,4.15-7.3,7.61-12.62,10.38-5.33,2.77-11.39,4.15-18.21,4.15-7.56,0-14.48-1.94-20.76-5.83-6.28-3.89-11.26-9.32-14.93-16.29-3.67-6.97-5.51-14.88-5.51-23.72s1.84-16.66,5.51-23.48Zm62.76,7.99c-2.5-4.47-5.78-7.88-9.82-10.22-4.05-2.34-8.41-3.51-13.1-3.51s-9.05,1.14-13.1,3.43c-4.05,2.29-7.32,5.64-9.82,10.06-2.5,4.42-3.75,9.66-3.75,15.73s1.25,11.39,3.75,15.97c2.5,4.58,5.8,8.07,9.9,10.46,4.1,2.4,8.44,3.59,13.02,3.59s9.05-1.17,13.1-3.51c4.05-2.34,7.32-5.77,9.82-10.3,2.5-4.52,3.75-9.82,3.75-15.89s-1.25-11.34-3.75-15.81Z"/><path class="cls-2" d="m1140.68,76.98v-14.84h-21.4v-23h-18.37v86.55c0,8.63,2.18,14.85,6.55,18.69,4.37,3.84,10.65,5.75,18.85,5.75h14.37v-15.17h-11.18c-3.72,0-6.35-.73-7.89-2.16-1.55-1.44-2.32-3.81-2.32-7.11v-48.71h21.4Z"/><path class="cls-2" d="m1231.08,112.92h-67.24c.53,7.03,3.14,12.67,7.83,16.93,4.68,4.26,10.43,6.39,17.25,6.39,9.79,0,16.72-4.1,20.76-12.3h19.64c-2.66,8.09-7.48,14.72-14.45,19.88-6.97,5.17-15.63,7.75-25.95,7.75-8.41,0-15.94-1.89-22.6-5.67-6.66-3.78-11.87-9.1-15.65-15.97-3.78-6.87-5.67-14.82-5.67-23.88s1.84-17.01,5.51-23.88c3.67-6.87,8.84-12.16,15.49-15.89,6.65-3.73,14.29-5.59,22.92-5.59s15.7,1.81,22.2,5.43c6.49,3.62,11.55,8.7,15.17,15.25,3.62,6.55,5.43,14.08,5.43,22.6,0,3.3-.21,6.28-.64,8.94Zm-18.37-14.69c-.11-6.71-2.5-12.08-7.19-16.13-4.69-4.04-10.49-6.07-17.41-6.07-6.28,0-11.66,2-16.13,5.99-4.47,3.99-7.13,9.4-7.99,16.21h48.71Z"/><path class="cls-2" d="m163.25,0v192.27l-40.81-38.45-40.78,38.45-40.81-38.45L.03,192.27V.03l26.33,37.23c-6.49,4.8-10.75,12.45-10.87,21.11-.21,15.01,12.34,27.11,27.35,27.11h17.62s21.16,29.88,21.16,29.88l21.16-29.88h18.25c14.79,0,26.76-11.97,26.76-26.73,0-8.82-4.29-16.66-10.9-21.49L163.25,0Z"/><polygon class="cls-2" points=".03 0 .03 .03 0 0 .03 0"/><path class="cls-1" d="m55.42,57.19c.94,8.24-5.71,15.21-13.84,14.83-5.66-.26-10.54-4.29-12.12-9.73-.66-2.28-.63-4.42-.19-6.42,5.5-.15,9.92-4.57,10.06-10.06,2.25-.49,4.67-.47,7.25.46,4.73,1.71,8.26,5.94,8.83,10.93Z"/><path class="cls-1" d="m134.23,57.19c.94,8.24-5.71,15.21-13.84,14.83-5.66-.26-10.54-4.29-12.12-9.73-.66-2.28-.63-4.42-.19-6.42,5.5-.15,9.92-4.57,10.06-10.06,2.25-.49,4.67-.47,7.25.46,4.73,1.71,8.26,5.94,8.83,10.93Z"/><polygon class="cls-2" points="113.01 0 81.63 44.35 50.26 0 113.01 0"/></svg>